HIERARCHY
ROOT Hips
{
    OFFSET 0.000000 0.000000 0.000000
    CHANNELS 6 Xposition Yposition Zposition Zrotation Xrotation Yrotation
    JOINT Spine
    {
        OFFSET -0.000000 7.750029 0.000000
        CHANNELS 3 Zrotation Xrotation Yrotation
        JOINT Spine1
        {
            OFFSET -0.000000 19.767460 0.000000
            CHANNELS 3 Zrotation Xrotation Yrotation
            JOINT Neck
            {
                OFFSET -0.000000 19.686279 1.789662
                CHANNELS 3 Zrotation Xrotation Yrotation
                JOINT Head
                {
                    OFFSET -0.000000 13.231757 -1.890251
                    CHANNELS 3 Zrotation Xrotation Yrotation
                    End Site
                    {
                        OFFSET -0.000000 23.628138 0.000000
                    }
                }
            }
            JOINT LeftShoulder
            {
                OFFSET 3.736819 16.910755 -0.280982
                CHANNELS 3 Zrotation Xrotation Yrotation
                JOINT LeftArm
                {
                    OFFSET 13.626117 0.000000 0.000000
                    CHANNELS 3 Zrotation Xrotation Yrotation
                    JOINT LeftForeArm
                    {
                        OFFSET 31.364786 0.000000 0.000000
                        CHANNELS 3 Zrotation Xrotation Yrotation
                        JOINT LeftHand
                        {
                            OFFSET 23.389509 0.000000 0.000000
                            CHANNELS 3 Zrotation Xrotation Yrotation
                            End Site
                            {
                                OFFSET 14.176883 0.000000 0.000000
                            }
                        }
                    }
                }
            }
            JOINT RightShoulder
            {
                OFFSET -3.821718 16.910755 -0.280982
                CHANNELS 3 Zrotation Xrotation Yrotation
                JOINT RightArm
                {
                    OFFSET -13.626117 0.000000 0.000000
                    CHANNELS 3 Zrotation Xrotation Yrotation
                    JOINT RightForeArm
                    {
                        OFFSET -31.364786 0.000000 0.000000
                        CHANNELS 3 Zrotation Xrotation Yrotation
                        JOINT RightHand
                        {
                            OFFSET -23.389509 0.000000 0.000000
                            CHANNELS 3 Zrotation Xrotation Yrotation
                            End Site
                            {
                                OFFSET -14.176883 0.000000 0.000000
                            }
                        }
                    }
                }
            }
        }
    }
    JOINT LeftUpLeg
    {
        OFFSET 9.451255 0.000000 0.000000
        CHANNELS 3 Zrotation Xrotation Yrotation
        JOINT LeftLeg
        {
            OFFSET -0.000000 -41.898624 0.000000
            CHANNELS 3 Zrotation Xrotation Yrotation
            JOINT LeftFoot
            {
                OFFSET -0.000000 -38.481331 0.000000
                CHANNELS 3 Zrotation Xrotation Yrotation
                JOINT LeftToeBase
                {
                    OFFSET -0.000000 -6.143315 14.176883
                    CHANNELS 3 Zrotation Xrotation Yrotation
                    End Site
                    {
                        OFFSET -0.000000 0.000000 3.780502
                    }
                }
            }
        }
    }
    JOINT RightUpLeg
    {
        OFFSET -9.451255 0.000000 0.000000
        CHANNELS 3 Zrotation Xrotation Yrotation
        JOINT RightLeg
        {
            OFFSET -0.000000 -41.898624 0.000000
            CHANNELS 3 Zrotation Xrotation Yrotation
            JOINT RightFoot
            {
                OFFSET -0.000000 -38.481331 0.000000
                CHANNELS 3 Zrotation Xrotation Yrotation
                JOINT RightToeBase
                {
                    OFFSET -0.000000 -6.143315 14.176883
                    CHANNELS 3 Zrotation Xrotation Yrotation
                    End Site
                    {
                        OFFSET -0.000000 0.000000 3.780502
                    }
                }
            }
        }
    }
}
MOTION
Frames:    12
Frame Time:    0.010000
0.780113    90.577484    123.669640    -1.845838    2.082286    179.922104    -1.186578    -1.974954    0.615371    1.274982    4.866375    0.581621    -4.812403    38.503605    3.381034    -1.992160    -26.947861    1.690657    11.104474    5.173250    -2.556331    -81.159790    44.660629    -5.129703    12.866627    -16.610798    -16.507139    -15.371448    -14.127031    -5.195883    -11.453373    7.536016    -2.986758    77.084618    40.565792    11.303627    -9.555008    -11.019600    14.900980    11.494373    -9.726364    0.618403    0.633957    2.497728    -2.347139    -2.776562    7.670332    -6.247500    -0.250957    -11.064440    20.717823    0.000000    0.000000    0.000000    -4.515269    4.276659    7.607913    3.257611    6.811040    12.407361    -2.581093    -12.444816    -29.415424    0.000000    0.000000    0.000000    
0.777416    90.575584    123.648880    -1.842200    2.089020    179.919418    -1.177966    -1.965126    0.621059    1.259850    4.857941    0.587927    -4.816041    38.464157    3.356764    -2.007797    -26.884758    1.661968    11.094812    5.189557    -2.543169    -81.149513    44.653351    -5.153446    12.863350    -16.647289    -16.491524    -15.511259    -14.138086    -5.360733    -11.475679    7.528788    -2.987741    77.136749    40.595490    11.296454    -9.584816    -11.028916    14.886158    11.514893    -9.730971    0.638612    0.630302    2.509322    -2.316938    -2.764565    7.691780    -6.242621    -0.243328    -11.077497    20.692661    0.000000    0.000000    0.000000    -4.522989    4.295665    7.668088    3.284427    6.806372    12.387742    -2.674116    -12.404760    -29.466820    0.000000    0.000000    0.000000    
0.773836    90.574524    123.633614    -1.842603    2.072942    179.925369    -1.173226    -1.979873    0.623427    1.237724    4.860966    0.591181    -4.842710    38.458679    3.365044    -1.972045    -26.894676    1.677916    11.088600    5.218472    -2.516560    -81.123070    44.660057    -5.205886    12.879186    -16.640642    -16.499310    -15.484347    -14.133895    -5.327127    -11.467653    7.526767    -2.993511    77.162048    40.599133    11.277102    -9.606441    -10.993669    14.935453    11.546935    -9.688692    0.636139    0.627182    2.492609    -2.320476    -2.764853    7.721140    -6.257716    -0.256660    -11.118643    20.719471    0.000000    0.000000    0.000000    -4.531374    4.292648    7.698516    3.295023    6.817443    12.365141    -2.714014    -12.433105    -29.511923    0.000000    0.000000    0.000000    
0.772154    90.571609    123.614738    -1.839186    2.067611    179.925919    -1.166340    -1.988372    0.620716    1.216426    4.868845    0.589260    -4.804783    38.480061    3.367348    -2.053699    -26.936623    1.656843    11.097740    5.170799    -2.500617    -81.186958    44.652737    -5.146155    12.868599    -16.637789    -16.495441    -15.513988    -14.126908    -5.362617    -11.444678    7.526017    -2.978536    77.142990    40.629883    11.297104    -9.616982    -11.017256    14.929185    11.576774    -9.709069    0.659024    0.631466    2.485371    -2.332928    -2.769037    7.743670    -6.257402    -0.240821    -11.122774    20.715408    0.000000    0.000000    0.000000    -4.523863    4.299788    7.684711    3.239992    6.820014    12.513592    -2.552164    -12.501275    -29.511986    0.000000    0.000000    0.000000    
0.765085    90.569077    123.595856    -1.840922    2.060541    179.919296    -1.166702    -1.981290    0.625194    1.202933    4.854923    0.594487    -4.781802    38.475266    3.352684    -2.091797    -26.929491    1.633085    11.091316    5.161856    -2.490678    -81.232918    44.670052    -5.113676    12.832233    -16.194195    -16.281370    -15.344513    -13.634132    -5.978422    -11.436424    7.562047    -2.988843    77.131584    40.640396    11.341338    -9.653456    -11.037660    14.929766    11.615893    -9.722325    0.681320    0.650327    2.477674    -2.438035    -2.842793    7.768626    -6.215322    -0.198694    -11.152728    20.799028    0.000000    0.000000    0.000000    -4.532004    4.301593    7.696717    3.300198    6.817166    12.352400    -2.594141    -12.523870    -29.473845    0.000000    0.000000    0.000000    
0.770692    90.570915    123.565247    -1.835885    2.063665    179.929214    -1.191521    -2.006443    0.625791    1.235996    4.887718    0.593994    -4.744961    38.471561    3.354876    -2.178479    -26.920355    1.612015    11.075162    5.162315    -2.479683    -81.246635    44.669991    -5.119204    12.843819    -16.196226    -16.281292    -15.307777    -13.635219    -5.987818    -11.480103    7.499198    -2.936396    77.264565    40.602036    11.204248    -9.676082    -11.023330    14.970239    11.645749    -9.701279    0.682151    0.638932    2.504160    -2.356687    -2.779763    7.761392    -6.295577    -0.205694    -11.158002    20.763079    0.000000    0.000000    0.000000    -4.510612    4.339204    7.693094    3.266464    6.783446    12.358940    -2.638556    -12.459433    -29.470867    0.000000    0.000000    0.000000    
0.763993    90.570442    123.545609    -1.834124    2.064575    179.930130    -1.177256    -2.003912    0.625234    1.214774    4.884140    0.594075    -4.741138    38.439514    3.356889    -2.209496    -26.852661    1.606476    11.069888    5.152179    -2.471836    -81.253990    44.636883    -5.106893    12.797160    -16.186649    -16.306679    -15.287092    -13.634188    -5.958553    -11.493588    7.497664    -2.940920    77.278236    40.610603    11.228452    -9.665991    -11.009734    14.952064    11.646236    -9.689342    0.693524    0.635385    2.515482    -2.359081    -2.779822    7.769014    -6.235229    -0.206925    -11.155725    20.706343    0.000000    0.000000    0.000000    -4.513267    4.354293    7.674038    3.268631    6.803517    12.375045    -2.658407    -12.490441    -29.450714    0.000000    0.000000    0.000000    
0.761575    90.568535    123.526428    -1.828288    2.056753    179.933960    -1.174130    -2.025386    0.628318    1.205863    4.920197    0.597298    -4.710049    38.392208    3.354294    -2.253132    -26.790287    1.598294    11.069255    5.150726    -2.451647    -81.240669    44.654957    -5.147570    12.799952    -16.174351    -16.298082    -15.266645    -13.624743    -5.947837    -11.466330    7.500160    -2.945376    77.239662    40.640774    11.267677    -9.682803    -11.003557    14.943477    11.688376    -9.681149    0.696114    0.622020    2.516412    -2.327587    -2.739611    7.774669    -6.263720    -0.207000    -11.182096    20.701790    0.000000    0.000000    0.000000    -4.515514    4.368165    7.720824    3.236969    6.796021    12.457627    -2.576379    -12.534602    -29.490509    0.000000    0.000000    0.000000    
0.757063    90.566162    123.512360    -1.825879    2.029577    179.935501    -1.168378    -2.056748    0.622041    1.189494    4.933389    0.591744    -4.664402    38.398289    3.347309    -2.334721    -26.792597    1.570898    11.063597    5.153597    -2.429364    -81.245079    44.681030    -5.156983    12.896575    -16.692842    -16.525293    -15.395027    -14.196855    -5.240348    -11.460844    7.509852    -2.895716    77.226151    40.592400    11.300601    -9.647694    -11.015785    14.943152    11.605767    -9.703967    0.641850    0.636746    2.488955    -2.392972    -2.781676    7.795011    -6.257971    -0.170095    -11.186050    20.756348    0.000000    0.000000    0.000000    -4.518334    4.356948    7.721266    3.253287    6.778418    12.402676    -2.602932    -12.515249    -29.475214    0.000000    0.000000    0.000000    
0.754667    90.566521    123.488678    -1.822653    2.034592    179.934647    -1.183374    -2.058375    0.623048    1.202685    4.950954    0.592325    -4.655079    38.405899    3.346961    -2.361162    -26.815804    1.562030    11.070417    5.150724    -2.416762    -81.267426    44.674171    -5.162777    12.903502    -16.654491    -16.508612    -15.365218    -14.155352    -5.278029    -11.450026    7.510826    -2.904792    77.189224    40.628220    11.333115    -9.643964    -10.999565    14.940752    11.578101    -9.691086    0.616213    0.641151    2.511401    -2.367449    -2.787273    7.787095    -6.242856    -0.179745    -11.190618    20.752472    0.000000    0.000000    0.000000    -4.516810    4.384246    7.717267    3.289907    6.757998    12.330786    -2.591568    -12.520788    -29.448854    0.000000    0.000000    0.000000    
0.746336    90.564217    123.472214    -1.827843    2.009428    179.938568    -1.178293    -2.075137    0.622739    1.176440    4.941202    0.593420    -4.548862    38.450481    3.326536    -2.527449    -26.852499    1.500377    11.065844    5.199219    -2.395911    -81.212234    44.671490    -5.235781    12.908887    -16.669762    -16.517143    -15.397712    -14.173100    -5.236124    -11.446669    7.498926    -2.886186    77.210945    40.703415    11.316265    -9.681930    -11.063707    14.931822    11.593107    -9.755368    0.575042    0.659044    2.486758    -2.451993    -2.862395    7.809789    -6.218800    -0.111042    -11.203166    20.786142    0.000000    0.000000    0.000000    -4.533949    4.382152    7.710045    3.295208    6.731079    12.370690    -2.692059    -12.457812    -29.540649    0.000000    0.000000    0.000000    
0.746676    90.566681    123.453308    -1.820378    1.999307    179.932999    -1.181262    -2.092779    0.619841    1.180629    4.964451    0.590296    -4.586997    38.420593    3.347294    -2.490791    -26.814100    1.529224    11.062669    5.179168    -2.389208    -81.254868    44.664112    -5.189085    12.920513    -16.671932    -16.539778    -15.381830    -14.169845    -5.251255    -11.439226    7.480579    -2.866269    77.215897    40.704124    11.304748    -9.691367    -11.068352    15.035278    11.531849    -9.785411    0.222506    0.639776    2.502317    -2.355592    -2.798882    7.785159    -6.236956    -0.241314    -11.236927    20.768696    0.000000    0.000000    0.000000    -4.517486    4.387219    7.677680    3.264985    6.720822    12.362550    -2.605576    -12.499586    -29.442694    0.000000    0.000000    0.000000    
